<?xml version="1.0" standalone="no"?>
<!DOCTYPE svg PUBLIC "-//W3C//DTD SVG 20010904//EN"
 "http://www.w3.org/TR/2001/REC-SVG-20010904/DTD/svg10.dtd">
<svg version="1.0" xmlns="http://www.w3.org/2000/svg"
 width="64.000000pt" height="64.000000pt" viewBox="0 0 64.000000 64.000000"
 preserveAspectRatio="xMidYMid meet">

<g transform="translate(0.000000,64.000000) scale(0.100000,-0.100000)"
fill="#000000" stroke="none">
<path d="M352 627 c-9 -11 -7 -18 8 -32 15 -14 17 -21 8 -32 -9 -11 -15 -10
-33 7 -18 17 -24 18 -33 7 -9 -11 -7 -18 8 -32 15 -14 17 -21 8 -32 -9 -11
-15 -10 -33 7 -18 17 -24 18 -33 7 -9 -11 -7 -18 8 -32 15 -14 17 -21 8 -32
-9 -11 -15 -10 -33 7 -16 15 -24 17 -33 8 -9 -9 -7 -17 8 -33 17 -18 18 -24 7
-33 -11 -9 -18 -7 -32 8 -14 15 -21 17 -32 8 -11 -9 -10 -15 7 -33 18 -20 19
-23 5 -35 -19 -16 -19 -54 0 -70 14 -12 13 -15 -5 -35 -17 -18 -18 -24 -7 -33
11 -9 18 -7 32 8 14 15 21 17 32 8 11 -9 10 -15 -7 -33 -17 -18 -18 -24 -7
-33 11 -9 18 -7 32 8 14 15 21 17 32 8 11 -9 10 -15 -7 -33 -17 -18 -18 -24
-7 -33 11 -9 18 -7 32 8 14 15 21 17 32 8 11 -9 10 -15 -7 -33 -17 -18 -18
-24 -7 -33 11 -9 18 -7 32 8 14 15 21 17 32 8 11 -9 10 -15 -7 -33 -17 -18
-18 -24 -7 -33 11 -9 18 -7 32 8 15 16 21 18 34 8 9 -6 -46 51 -121 128 -84
84 -138 147 -138 159 0 12 55 75 138 160 75 77 131 134 123 127 -12 -9 -19 -8
-36 8 -18 17 -24 18 -33 7z"/>
<path d="M312 467 c-72 -73 -132 -137 -132 -142 0 -16 269 -280 277 -272 4 4
-50 65 -120 135 -70 70 -127 132 -127 137 0 6 56 66 125 135 117 117 136 140
117 140 -4 0 -67 -60 -140 -133z"/>
<path d="M342 437 l-112 -112 115 -115 115 -115 0 228 c0 125 -1 227 -3 227
-1 0 -53 -51 -115 -113z"/>
</g>
</svg>
